<svg width="224" height="17" viewBox="0 0 224 17" fill="none" xmlns="http://www.w3.org/2000/svg">
<g clip-path="url(#clip0_202_43)">
<path d="M6.06667 16.6952C4.85334 16.6952 3.68667 16.4998 2.56667 16.109C1.46222 15.7025 0.606669 15.1867 0 14.5614L0.676669 13.2248C1.25222 13.7876 2.02222 14.2643 2.98667 14.6552C3.96667 15.0303 4.99334 15.2179 6.06667 15.2179C7.09334 15.2179 7.92558 15.0929 8.56334 14.8428C9.21667 14.577 9.6911 14.2253 9.98667 13.7876C10.2978 13.3499 10.4533 12.8653 10.4533 12.3338C10.4533 11.6929 10.2667 11.177 9.89334 10.7862C9.53558 10.3954 9.06109 10.0906 8.47 9.87172C7.87891 9.63724 7.22558 9.434 6.51 9.26207C5.79445 9.09013 5.07889 8.91034 4.36334 8.72276C3.64778 8.51952 2.98667 8.25379 2.38 7.92551C1.78889 7.59724 1.30667 7.16737 0.933336 6.63586C0.575556 6.08875 0.396667 5.37747 0.396667 4.50207C0.396667 3.6892 0.606669 2.94667 1.02667 2.27448C1.46222 1.58667 2.12334 1.03954 3.01 0.633101C3.89667 0.211034 5.03222 0 6.41667 0C7.33443 0 8.24443 0.132874 9.14667 0.398621C10.0489 0.648735 10.8267 1.00046 11.48 1.45379L10.8967 2.83724C10.1967 2.36827 9.45 2.02437 8.65667 1.80552C7.87891 1.58667 7.12443 1.47724 6.39334 1.47724C5.41334 1.47724 4.60445 1.61011 3.96667 1.87586C3.32889 2.14161 2.85445 2.50115 2.54334 2.95448C2.24778 3.39218 2.1 3.89241 2.1 4.45517C2.1 5.09609 2.27889 5.61196 2.63667 6.00276C3.01 6.39358 3.49222 6.69841 4.08334 6.91724C4.69 7.13607 5.35111 7.33151 6.06667 7.50345C6.78224 7.67538 7.49 7.86297 8.19 8.0662C8.90558 8.26944 9.55891 8.53517 10.15 8.86345C10.7567 9.17607 11.2389 9.59814 11.5967 10.1297C11.97 10.6612 12.1567 11.3568 12.1567 12.2165C12.1567 13.0138 11.9389 13.7563 11.5033 14.4441C11.0678 15.1163 10.3989 15.6634 9.49667 16.0855C8.61 16.4919 7.46667 16.6952 6.06667 16.6952ZM18.3976 16.5545V1.64138H12.6576V0.140689H25.8642V1.64138H20.1242V16.5545H18.3976ZM40.1027 0.140689H41.806V16.5545H40.1027V0.140689ZM29.8827 16.5545H28.156V0.140689H29.8827V16.5545ZM40.266 8.98069H29.696V7.45655H40.266V8.98069ZM48.2105 7.48H56.8439V8.95724H48.2105V7.48ZM48.3972 15.0538H58.2205V16.5545H46.6705V0.140689H57.8705V1.64138H48.3972V15.0538ZM63.3523 8.08965H71.9857V9.59034H63.3523V8.08965ZM63.539 16.5545H61.8123V0.140689H73.0123V1.64138H63.539V16.5545ZM72.7236 16.5545L80.1902 0.140689H81.8936L89.3602 16.5545H87.5402L80.6803 1.14897H81.3802L74.5203 16.5545H72.7236ZM75.6636 12.1697L76.1769 10.7628H85.6736L86.1869 12.1697H75.6636ZM91.5956 16.5545V0.140689H93.0189L104.289 14.3972H103.542V0.140689H105.246V16.5545H103.822L92.5756 2.29793H93.3223V16.5545H91.5956ZM114.007 16.5545V10.4579L114.403 11.5365L107.473 0.140689H109.317L115.407 10.1531H114.427L120.517 0.140689H122.243L115.313 11.5365L115.71 10.4579V16.5545H114.007ZM130.094 16.5545V0.140689H136.208C137.592 0.140689 138.782 0.367356 139.778 0.820693C140.773 1.25839 141.535 1.89931 142.064 2.74345C142.609 3.57195 142.881 4.58023 142.881 5.76828C142.881 6.92503 142.609 7.92551 142.064 8.76965C141.535 9.59814 140.773 10.2391 139.778 10.6924C138.782 11.1301 137.592 11.349 136.208 11.349H131.051L131.821 10.5517V16.5545H130.094ZM141.248 16.5545L137.048 10.5986H138.914L143.138 16.5545H141.248ZM131.821 10.6924L131.051 9.87172H136.161C137.794 9.87172 139.031 9.5122 139.871 8.7931C140.727 8.074 141.154 7.06572 141.154 5.76828C141.154 4.45517 140.727 3.43908 139.871 2.72C139.031 2.00092 137.794 1.64138 136.161 1.64138H131.051L131.821 0.820693V10.6924ZM146.49 16.5545V0.140689H148.216V16.5545H146.49ZM153.064 16.5545V0.140689H160.111C161.931 0.140689 163.339 0.508045 164.334 1.24276C165.345 1.97747 165.851 3.01701 165.851 4.36138C165.851 5.25241 165.641 6.00276 165.221 6.61241C164.816 7.22207 164.256 7.68324 163.541 7.99586C162.841 8.30848 162.071 8.46482 161.231 8.46482L161.628 7.90207C162.669 7.90207 163.564 8.0662 164.311 8.39448C165.073 8.7071 165.664 9.18392 166.084 9.82482C166.504 10.4501 166.714 11.2317 166.714 12.1697C166.714 13.5609 166.201 14.6395 165.174 15.4055C164.163 16.1715 162.631 16.5545 160.578 16.5545H153.064ZM154.791 15.1241H160.554C161.985 15.1241 163.082 14.8819 163.844 14.3972C164.606 13.897 164.988 13.1076 164.988 12.029C164.988 10.966 164.606 10.1922 163.844 9.70758C163.082 9.20737 161.985 8.95724 160.554 8.95724H154.604V7.52689H159.994C161.301 7.52689 162.312 7.27676 163.028 6.77655C163.759 6.27634 164.124 5.53379 164.124 4.54896C164.124 3.54851 163.759 2.80598 163.028 2.32138C162.312 1.82115 161.301 1.57103 159.994 1.57103H154.791V15.1241ZM171.729 7.48H180.362V8.95724H171.729V7.48ZM171.915 15.0538H181.739V16.5545H170.189V0.140689H181.389V1.64138H171.915V15.0538ZM185.331 16.5545V0.140689H187.057V16.5545H185.331ZM191.905 16.5545V0.140689H198.018C199.403 0.140689 200.593 0.367356 201.588 0.820693C202.584 1.25839 203.346 1.89931 203.875 2.74345C204.419 3.57195 204.692 4.58023 204.692 5.76828C204.692 6.92503 204.419 7.92551 203.875 8.76965C203.346 9.59814 202.584 10.2391 201.588 10.6924C200.593 11.1301 199.403 11.349 198.018 11.349H192.862L193.632 10.5517V16.5545H191.905ZM203.058 16.5545L198.858 10.5986H200.725L204.948 16.5545H203.058ZM193.632 10.6924L192.862 9.87172H197.972C199.605 9.87172 200.842 9.5122 201.682 8.7931C202.537 8.074 202.965 7.06572 202.965 5.76828C202.965 4.45517 202.537 3.43908 201.682 2.72C200.842 2.00092 199.605 1.64138 197.972 1.64138H192.862L193.632 0.820693V10.6924ZM215.44 16.6952C214.212 16.6952 213.068 16.4919 212.01 16.0855C210.968 15.6634 210.058 15.0772 209.28 14.3269C208.518 13.5609 207.919 12.6777 207.483 11.6772C207.063 10.6612 206.853 9.55124 206.853 8.34758C206.853 7.14392 207.063 6.04186 207.483 5.04138C207.919 4.02529 208.518 3.14207 209.28 2.39172C210.058 1.62575 210.968 1.03954 212.01 0.633101C213.053 0.211034 214.196 0 215.44 0C216.669 0 217.805 0.211034 218.847 0.633101C219.889 1.03954 220.792 1.61793 221.553 2.36827C222.332 3.11862 222.93 4.00184 223.35 5.01793C223.786 6.034 224.003 7.14392 224.003 8.34758C224.003 9.55124 223.786 10.6612 223.35 11.6772C222.93 12.6933 222.332 13.5765 221.553 14.3269C220.792 15.0772 219.889 15.6634 218.847 16.0855C217.805 16.4919 216.669 16.6952 215.44 16.6952ZM215.44 15.1476C216.42 15.1476 217.323 14.9834 218.147 14.6552C218.987 14.3112 219.71 13.8345 220.317 13.2248C220.939 12.5995 221.422 11.8805 221.763 11.0676C222.106 10.2391 222.277 9.33241 222.277 8.34758C222.277 7.36276 222.106 6.46392 221.763 5.65103C221.422 4.82253 220.939 4.10345 220.317 3.49379C219.71 2.86851 218.987 2.39173 218.147 2.06345C217.323 1.71954 216.42 1.54758 215.44 1.54758C214.46 1.54758 213.55 1.71954 212.71 2.06345C211.87 2.39173 211.139 2.86851 210.517 3.49379C209.91 4.10345 209.428 4.82253 209.07 5.65103C208.728 6.46392 208.557 7.36276 208.557 8.34758C208.557 9.31676 208.728 10.2156 209.07 11.0441C209.428 11.8726 209.91 12.5995 210.517 13.2248C211.139 13.8345 211.87 14.3112 212.71 14.6552C213.55 14.9834 214.46 15.1476 215.44 15.1476Z" fill="#292524"/>
</g>
<defs>
<clipPath id="clip0_202_43">
<rect width="224" height="17" fill="white"/>
</clipPath>
</defs>
</svg>
